<svg xmlns="http://www.w3.org/2000/svg" width="22" height="42" fill="none" viewBox="0 0 22 42"><path fill="url(#paint0_linear_1077_8690)" d="M18.75 40.0781C18.6198 40.3906 18.3464 40.651 17.9297 40.8594C17.7474 40.7552 17.5781 40.625 17.4219 40.4688C17.2917 40.3385 17.1224 40.2344 16.9141 40.1562C16.7578 39.8438 16.6406 39.6615 16.5625 39.6094C16.4844 39.5312 16.3932 39.4792 16.2891 39.4531C16.1328 39.3229 16.0026 39.1667 15.8984 38.9844C15.7943 38.8021 15.6771 38.6458 15.5469 38.5156C15.4948 38.4896 15.3906 38.4115 15.2344 38.2812C15.1042 38.125 14.9609 37.9688 14.8047 37.8125C14.6484 37.6562 14.5052 37.513 14.375 37.3828C14.2448 37.2266 14.1667 37.1484 14.1406 37.1484C13.9062 36.9922 13.6979 36.8229 13.5156 36.6406C13.4635 36.5625 13.3984 36.4844 13.3203 36.4062C13.2682 36.3021 13.2161 36.224 13.1641 36.1719C12.9557 36.0938 12.7865 35.9896 12.6562 35.8594C12.526 35.7031 12.3958 35.5339 12.2656 35.3516C12.1615 35.1693 12.0312 35.013 11.875 34.8828C11.7448 34.7266 11.5885 34.6094 11.4062 34.5312C11.224 34.2708 11.0026 34.0625 10.7422 33.9062C10.4818 33.724 10.2604 33.5156 10.0781 33.2812C9.92188 33.099 9.7526 32.9297 9.57031 32.7734C9.38802 32.5911 9.19271 32.4219 8.98438 32.2656C8.88021 32.1094 8.71094 31.888 8.47656 31.6016C8.24219 31.2891 8.03385 31.1198 7.85156 31.0938C7.82552 31.6927 7.79948 32.2917 7.77344 32.8906C7.77344 33.4896 7.76042 34.0885 7.73438 34.6875C7.73438 35 7.73438 35.3255 7.73438 35.6641C7.76042 36.0026 7.76042 36.3411 7.73438 36.6797C7.70833 36.8099 7.66927 36.9531 7.61719 37.1094C7.59115 37.2396 7.57812 37.3828 7.57812 37.5391C7.57812 37.8516 7.55208 38.0599 7.5 38.1641C7.47396 38.2422 7.44792 38.3203 7.42188 38.3984C7.34375 38.6589 7.26562 38.9844 7.1875 39.375C7.13542 39.7396 7.00521 40.026 6.79688 40.2344C6.51042 40.2604 6.28906 40.2344 6.13281 40.1562C6.08073 40.2083 6.02865 40.2604 5.97656 40.3125C5.92448 40.3646 5.84635 40.3906 5.74219 40.3906C5.6901 40.3385 5.59896 40.2865 5.46875 40.2344C5.36458 40.2083 5.28646 40.1953 5.23438 40.1953C5.10417 40.1953 4.96094 40.2214 4.80469 40.2734C4.67448 40.3255 4.54427 40.3516 4.41406 40.3516C4.28385 40.3516 4.16667 40.3125 4.0625 40.2344C3.98438 40.1823 3.88021 40.1562 3.75 40.1562C3.67188 40.1562 3.58073 40.1953 3.47656 40.2734C3.3724 40.3516 3.26823 40.3906 3.16406 40.3906C3.03385 40.3906 2.91667 40.3646 2.8125 40.3125C2.73438 40.2865 2.64323 40.2604 2.53906 40.2344C2.53906 40.1562 2.53906 40.0781 2.53906 40C2.5651 39.9219 2.5651 39.8438 2.53906 39.7656L2.38281 38.7891C2.40885 38.6068 2.4349 38.4245 2.46094 38.2422C2.51302 38.0599 2.55208 37.8906 2.57812 37.7344C2.60417 37.3177 2.61719 36.9271 2.61719 36.5625C2.64323 36.1719 2.65625 35.7812 2.65625 35.3906C2.65625 34.7135 2.64323 34.0495 2.61719 33.3984C2.61719 32.7474 2.63021 32.0833 2.65625 31.4062C2.68229 31.1719 2.70833 30.9375 2.73438 30.7031C2.78646 30.4427 2.8125 30.1953 2.8125 29.9609C2.8125 29.2839 2.85156 28.6198 2.92969 27.9688C3.00781 27.3177 3.07292 26.6536 3.125 25.9766C3.17708 25.4557 3.20312 24.9479 3.20312 24.4531C3.20312 23.9583 3.20312 23.4635 3.20312 22.9688C3.20312 22.0052 3.1901 21.0547 3.16406 20.1172C3.13802 19.1536 3.125 18.2031 3.125 17.2656C3.125 16.9531 3.13802 16.5365 3.16406 16.0156C3.1901 15.4688 3.16406 15.0521 3.08594 14.7656C3.11198 14.0104 3.11198 13.2682 3.08594 12.5391C3.1901 12.487 3.24219 12.4089 3.24219 12.3047C3.26823 12.2005 3.28125 12.0964 3.28125 11.9922V11.4453C3.51562 11.1849 3.71094 11.0547 3.86719 11.0547C3.9974 11.0547 4.1276 11.0677 4.25781 11.0938C4.38802 11.1198 4.51823 11.1719 4.64844 11.25C4.98698 11.1719 5.20833 11.1589 5.3125 11.2109C5.41667 11.263 5.53385 11.3151 5.66406 11.3672C5.8724 11.3411 6.01562 11.25 6.09375 11.0938C6.38021 11.1458 6.52344 11.2109 6.52344 11.2891C6.52344 11.3672 6.54948 11.4453 6.60156 11.5234C6.86198 11.5495 7.03125 11.5365 7.10938 11.4844C7.21354 11.4062 7.33073 11.3542 7.46094 11.3281C7.69531 11.3802 7.85156 11.4453 7.92969 11.5234C7.92969 11.6797 7.96875 11.862 8.04688 12.0703C8.125 12.2526 8.16406 12.5 8.16406 12.8125C8.16406 13.0469 8.15104 13.2812 8.125 13.5156C8.09896 13.724 8.08594 13.9323 8.08594 14.1406C8.08594 14.5052 8.09896 14.8568 8.125 15.1953C8.15104 15.5339 8.16406 15.8854 8.16406 16.25C8.16406 16.3542 8.15104 16.4583 8.125 16.5625C8.125 16.6406 8.125 16.7318 8.125 16.8359C8.125 17.8255 8.15104 18.8281 8.20312 19.8438C8.25521 20.8594 8.28125 21.875 8.28125 22.8906C8.28125 22.9427 8.26823 23.0208 8.24219 23.125C8.21615 23.2031 8.22917 23.2682 8.28125 23.3203C8.72396 22.8516 9.10156 22.3568 9.41406 21.8359C9.72656 21.2891 10.0651 20.7552 10.4297 20.2344C10.7422 19.8438 11.0547 19.375 11.3672 18.8281C11.7057 18.2812 11.9922 17.7865 12.2266 17.3438C12.3307 17.1875 12.4219 17.0312 12.5 16.875C12.5781 16.7188 12.6693 16.5625 12.7734 16.4062C12.8255 16.276 12.8906 16.1589 12.9688 16.0547C13.0729 15.9245 13.151 15.7812 13.2031 15.625C13.3333 15.4167 13.4505 15.2214 13.5547 15.0391C13.6589 14.8307 13.776 14.6224 13.9062 14.4141C14.0365 14.2057 14.1667 14.0234 14.2969 13.8672C14.4531 13.6849 14.5964 13.5026 14.7266 13.3203C14.9349 12.9818 15.1562 12.6432 15.3906 12.3047C15.625 11.9401 15.8333 11.5755 16.0156 11.2109C16.276 11.0807 16.5104 10.9375 16.7188 10.7812C16.9271 10.599 17.1484 10.4427 17.3828 10.3125C17.6432 10.651 17.8255 10.8854 17.9297 11.0156C18.0599 11.1458 18.2292 11.224 18.4375 11.25C18.4896 11.3281 18.5156 11.4193 18.5156 11.5234C18.5417 11.6276 18.5938 11.7057 18.6719 11.7578C18.9844 11.7839 19.1667 11.7839 19.2188 11.7578C19.2969 11.888 19.401 11.9922 19.5312 12.0703C19.6875 12.1224 19.8307 12.1745 19.9609 12.2266C19.9609 12.3047 19.9609 12.3958 19.9609 12.5C19.9609 12.5781 19.974 12.6432 20 12.6953C20.3125 12.8255 20.4688 13.0729 20.4688 13.4375C19.974 14.3229 19.4271 15.1693 18.8281 15.9766C18.2552 16.7578 17.7474 17.6042 17.3047 18.5156C17.1745 18.8021 17.0182 19.0755 16.8359 19.3359C16.6797 19.5964 16.5495 19.8698 16.4453 20.1562C16.263 20.3385 16.1198 20.5339 16.0156 20.7422C15.9115 20.9245 15.7812 21.1068 15.625 21.2891C15.5208 21.4193 15.4167 21.5625 15.3125 21.7188C15.2083 21.849 15.1042 21.9792 15 22.1094C14.7917 22.3958 14.5964 22.6953 14.4141 23.0078C14.2578 23.2943 14.0625 23.5807 13.8281 23.8672C13.6719 24.1276 13.4896 24.388 13.2812 24.6484C13.0729 24.9349 12.8906 25.2604 12.7344 25.625C12.6042 25.9635 12.4349 26.276 12.2266 26.5625C12.0182 26.875 11.901 27.1094 11.875 27.2656C11.875 27.3958 11.8099 27.6302 11.6797 27.9688C11.862 28.2552 12.0703 28.5156 12.3047 28.75C12.5391 28.9844 12.7865 29.2057 13.0469 29.4141C13.2552 29.7005 13.4896 29.9609 13.75 30.1953C14.0365 30.4036 14.3229 30.638 14.6094 30.8984C14.7135 31.0026 14.8047 31.1068 14.8828 31.2109C14.9609 31.2891 15.0521 31.3672 15.1562 31.4453C15.4427 31.7578 15.7812 32.0573 16.1719 32.3438C16.5885 32.6302 16.9792 32.9036 17.3438 33.1641C17.6302 33.4245 17.9818 33.75 18.3984 34.1406C18.8411 34.5052 19.2969 34.9089 19.7656 35.3516C20.2344 35.7682 20.651 36.1719 21.0156 36.5625C21.3802 36.9271 21.5625 37.1615 21.5625 37.2656C21.4323 37.6562 21.276 37.9036 21.0938 38.0078C20.9375 38.0859 20.8203 38.2161 20.7422 38.3984C20.5859 38.4505 20.5078 38.5026 20.5078 38.5547C20.5078 38.6068 20.4688 38.6979 20.3906 38.8281C20.2083 38.9583 20.0521 39.1146 19.9219 39.2969C19.7917 39.4531 19.6615 39.6094 19.5312 39.7656C19.4271 39.8177 19.3229 39.8698 19.2188 39.9219C19.1406 39.9479 19.0755 40.013 19.0234 40.1172L18.75 40.0781Z"/><defs><linearGradient id="paint0_linear_1077_8690" x1="17.686" x2="4.075" y1="10.043" y2="38.473" gradientUnits="userSpaceOnUse"><stop offset=".245" stop-color="#31572C"/><stop offset=".988" stop-color="#4F772D"/></linearGradient></defs></svg>