<svg xmlns="http://www.w3.org/2000/svg" width="113" height="42" fill="none" viewBox="0 0 113 42"><path fill="url(#paint0_linear_1078_8692)" d="M18.75 40.0781C18.6198 40.3906 18.3464 40.651 17.9297 40.8594C17.7474 40.7552 17.5781 40.625 17.4219 40.4688C17.2917 40.3385 17.1224 40.2344 16.9141 40.1562C16.7578 39.8438 16.6406 39.6615 16.5625 39.6094C16.4844 39.5312 16.3932 39.4792 16.2891 39.4531C16.1328 39.3229 16.0026 39.1667 15.8984 38.9844C15.7943 38.8021 15.6771 38.6458 15.5469 38.5156C15.4948 38.4896 15.3906 38.4115 15.2344 38.2812C15.1042 38.125 14.9609 37.9688 14.8047 37.8125C14.6484 37.6562 14.5052 37.513 14.375 37.3828C14.2448 37.2266 14.1667 37.1484 14.1406 37.1484C13.9062 36.9922 13.6979 36.8229 13.5156 36.6406C13.4635 36.5625 13.3984 36.4844 13.3203 36.4062C13.2682 36.3021 13.2161 36.224 13.1641 36.1719C12.9557 36.0938 12.7865 35.9896 12.6562 35.8594C12.526 35.7031 12.3958 35.5339 12.2656 35.3516C12.1615 35.1693 12.0312 35.013 11.875 34.8828C11.7448 34.7266 11.5885 34.6094 11.4062 34.5312C11.224 34.2708 11.0026 34.0625 10.7422 33.9062C10.4818 33.724 10.2604 33.5156 10.0781 33.2812C9.92188 33.099 9.7526 32.9297 9.57031 32.7734C9.38802 32.5911 9.19271 32.4219 8.98438 32.2656C8.88021 32.1094 8.71094 31.888 8.47656 31.6016C8.24219 31.2891 8.03385 31.1198 7.85156 31.0938C7.82552 31.6927 7.79948 32.2917 7.77344 32.8906C7.77344 33.4896 7.76042 34.0885 7.73438 34.6875C7.73438 35 7.73438 35.3255 7.73438 35.6641C7.76042 36.0026 7.76042 36.3411 7.73438 36.6797C7.70833 36.8099 7.66927 36.9531 7.61719 37.1094C7.59115 37.2396 7.57812 37.3828 7.57812 37.5391C7.57812 37.8516 7.55208 38.0599 7.5 38.1641C7.47396 38.2422 7.44792 38.3203 7.42188 38.3984C7.34375 38.6589 7.26562 38.9844 7.1875 39.375C7.13542 39.7396 7.00521 40.026 6.79688 40.2344C6.51042 40.2604 6.28906 40.2344 6.13281 40.1562C6.08073 40.2083 6.02865 40.2604 5.97656 40.3125C5.92448 40.3646 5.84635 40.3906 5.74219 40.3906C5.6901 40.3385 5.59896 40.2865 5.46875 40.2344C5.36458 40.2083 5.28646 40.1953 5.23438 40.1953C5.10417 40.1953 4.96094 40.2214 4.80469 40.2734C4.67448 40.3255 4.54427 40.3516 4.41406 40.3516C4.28385 40.3516 4.16667 40.3125 4.0625 40.2344C3.98438 40.1823 3.88021 40.1562 3.75 40.1562C3.67188 40.1562 3.58073 40.1953 3.47656 40.2734C3.3724 40.3516 3.26823 40.3906 3.16406 40.3906C3.03385 40.3906 2.91667 40.3646 2.8125 40.3125C2.73438 40.2865 2.64323 40.2604 2.53906 40.2344C2.53906 40.1562 2.53906 40.0781 2.53906 40C2.5651 39.9219 2.5651 39.8438 2.53906 39.7656L2.38281 38.7891C2.40885 38.6068 2.4349 38.4245 2.46094 38.2422C2.51302 38.0599 2.55208 37.8906 2.57812 37.7344C2.60417 37.3177 2.61719 36.9271 2.61719 36.5625C2.64323 36.1719 2.65625 35.7812 2.65625 35.3906C2.65625 34.7135 2.64323 34.0495 2.61719 33.3984C2.61719 32.7474 2.63021 32.0833 2.65625 31.4062C2.68229 31.1719 2.70833 30.9375 2.73438 30.7031C2.78646 30.4427 2.8125 30.1953 2.8125 29.9609C2.8125 29.2839 2.85156 28.6198 2.92969 27.9688C3.00781 27.3177 3.07292 26.6536 3.125 25.9766C3.17708 25.4557 3.20312 24.9479 3.20312 24.4531C3.20312 23.9583 3.20312 23.4635 3.20312 22.9688C3.20312 22.0052 3.1901 21.0547 3.16406 20.1172C3.13802 19.1536 3.125 18.2031 3.125 17.2656C3.125 16.9531 3.13802 16.5365 3.16406 16.0156C3.1901 15.4688 3.16406 15.0521 3.08594 14.7656C3.11198 14.0104 3.11198 13.2682 3.08594 12.5391C3.1901 12.487 3.24219 12.4089 3.24219 12.3047C3.26823 12.2005 3.28125 12.0964 3.28125 11.9922V11.4453C3.51562 11.1849 3.71094 11.0547 3.86719 11.0547C3.9974 11.0547 4.1276 11.0677 4.25781 11.0938C4.38802 11.1198 4.51823 11.1719 4.64844 11.25C4.98698 11.1719 5.20833 11.1589 5.3125 11.2109C5.41667 11.263 5.53385 11.3151 5.66406 11.3672C5.8724 11.3411 6.01562 11.25 6.09375 11.0938C6.38021 11.1458 6.52344 11.2109 6.52344 11.2891C6.52344 11.3672 6.54948 11.4453 6.60156 11.5234C6.86198 11.5495 7.03125 11.5365 7.10938 11.4844C7.21354 11.4062 7.33073 11.3542 7.46094 11.3281C7.69531 11.3802 7.85156 11.4453 7.92969 11.5234C7.92969 11.6797 7.96875 11.862 8.04688 12.0703C8.125 12.2526 8.16406 12.5 8.16406 12.8125C8.16406 13.0469 8.15104 13.2812 8.125 13.5156C8.09896 13.724 8.08594 13.9323 8.08594 14.1406C8.08594 14.5052 8.09896 14.8568 8.125 15.1953C8.15104 15.5339 8.16406 15.8854 8.16406 16.25C8.16406 16.3542 8.15104 16.4583 8.125 16.5625C8.125 16.6406 8.125 16.7318 8.125 16.8359C8.125 17.8255 8.15104 18.8281 8.20312 19.8438C8.25521 20.8594 8.28125 21.875 8.28125 22.8906C8.28125 22.9427 8.26823 23.0208 8.24219 23.125C8.21615 23.2031 8.22917 23.2682 8.28125 23.3203C8.72396 22.8516 9.10156 22.3568 9.41406 21.8359C9.72656 21.2891 10.0651 20.7552 10.4297 20.2344C10.7422 19.8438 11.0547 19.375 11.3672 18.8281C11.7057 18.2812 11.9922 17.7865 12.2266 17.3438C12.3307 17.1875 12.4219 17.0312 12.5 16.875C12.5781 16.7188 12.6693 16.5625 12.7734 16.4062C12.8255 16.276 12.8906 16.1589 12.9688 16.0547C13.0729 15.9245 13.151 15.7812 13.2031 15.625C13.3333 15.4167 13.4505 15.2214 13.5547 15.0391C13.6589 14.8307 13.776 14.6224 13.9062 14.4141C14.0365 14.2057 14.1667 14.0234 14.2969 13.8672C14.4531 13.6849 14.5964 13.5026 14.7266 13.3203C14.9349 12.9818 15.1562 12.6432 15.3906 12.3047C15.625 11.9401 15.8333 11.5755 16.0156 11.2109C16.276 11.0807 16.5104 10.9375 16.7188 10.7812C16.9271 10.599 17.1484 10.4427 17.3828 10.3125C17.6432 10.651 17.8255 10.8854 17.9297 11.0156C18.0599 11.1458 18.2292 11.224 18.4375 11.25C18.4896 11.3281 18.5156 11.4193 18.5156 11.5234C18.5417 11.6276 18.5938 11.7057 18.6719 11.7578C18.9844 11.7839 19.1667 11.7839 19.2188 11.7578C19.2969 11.888 19.401 11.9922 19.5312 12.0703C19.6875 12.1224 19.8307 12.1745 19.9609 12.2266C19.9609 12.3047 19.9609 12.3958 19.9609 12.5C19.9609 12.5781 19.974 12.6432 20 12.6953C20.3125 12.8255 20.4688 13.0729 20.4688 13.4375C19.974 14.3229 19.4271 15.1693 18.8281 15.9766C18.2552 16.7578 17.7474 17.6042 17.3047 18.5156C17.1745 18.8021 17.0182 19.0755 16.8359 19.3359C16.6797 19.5964 16.5495 19.8698 16.4453 20.1562C16.263 20.3385 16.1198 20.5339 16.0156 20.7422C15.9115 20.9245 15.7812 21.1068 15.625 21.2891C15.5208 21.4193 15.4167 21.5625 15.3125 21.7188C15.2083 21.849 15.1042 21.9792 15 22.1094C14.7917 22.3958 14.5964 22.6953 14.4141 23.0078C14.2578 23.2943 14.0625 23.5807 13.8281 23.8672C13.6719 24.1276 13.4896 24.388 13.2812 24.6484C13.0729 24.9349 12.8906 25.2604 12.7344 25.625C12.6042 25.9635 12.4349 26.276 12.2266 26.5625C12.0182 26.875 11.901 27.1094 11.875 27.2656C11.875 27.3958 11.8099 27.6302 11.6797 27.9688C11.862 28.2552 12.0703 28.5156 12.3047 28.75C12.5391 28.9844 12.7865 29.2057 13.0469 29.4141C13.2552 29.7005 13.4896 29.9609 13.75 30.1953C14.0365 30.4036 14.3229 30.638 14.6094 30.8984C14.7135 31.0026 14.8047 31.1068 14.8828 31.2109C14.9609 31.2891 15.0521 31.3672 15.1562 31.4453C15.4427 31.7578 15.7812 32.0573 16.1719 32.3438C16.5885 32.6302 16.9792 32.9036 17.3438 33.1641C17.6302 33.4245 17.9818 33.75 18.3984 34.1406C18.8411 34.5052 19.2969 34.9089 19.7656 35.3516C20.2344 35.7682 20.651 36.1719 21.0156 36.5625C21.3802 36.9271 21.5625 37.1615 21.5625 37.2656C21.4323 37.6562 21.276 37.9036 21.0938 38.0078C20.9375 38.0859 20.8203 38.2161 20.7422 38.3984C20.5859 38.4505 20.5078 38.5026 20.5078 38.5547C20.5078 38.6068 20.4688 38.6979 20.3906 38.8281C20.2083 38.9583 20.0521 39.1146 19.9219 39.2969C19.7917 39.4531 19.6615 39.6094 19.5312 39.7656C19.4271 39.8177 19.3229 39.8698 19.2188 39.9219C19.1406 39.9479 19.0755 40.013 19.0234 40.1172L18.75 40.0781Z"/><path fill="#000" d="M40.368 21.368V39H36.72V36.92C36.144 37.6453 35.3867 38.2213 34.448 38.648C33.5307 39.0533 32.5493 39.256 31.504 39.256C30.1173 39.256 28.8693 38.968 27.76 38.392C26.672 37.816 25.808 36.9627 25.168 35.832C24.5493 34.7013 24.24 33.336 24.24 31.736V21.368H27.856V31.192C27.856 32.7707 28.2507 33.9867 29.04 34.84C29.8293 35.672 30.9067 36.088 32.272 36.088C33.6373 36.088 34.7147 35.672 35.504 34.84C36.3147 33.9867 36.72 32.7707 36.72 31.192V21.368H40.368ZM48.8293 23.928C49.3626 23.032 50.0666 22.3387 50.9413 21.848C51.8373 21.336 52.8933 21.08 54.1093 21.08V24.856H53.1813C51.7519 24.856 50.6639 25.2187 49.9173 25.944C49.1919 26.6693 48.8293 27.928 48.8293 29.72V39H45.1813V21.368H48.8293V23.928ZM63.8625 39.288C62.4758 39.288 61.2278 39.0427 60.1185 38.552C59.0305 38.04 58.1665 37.3573 57.5265 36.504C56.8865 35.6293 56.5452 34.6587 56.5025 33.592H60.2785C60.3425 34.3387 60.6945 34.968 61.3345 35.48C61.9958 35.9707 62.8172 36.216 63.7985 36.216C64.8225 36.216 65.6118 36.024 66.1665 35.64C66.7425 35.2347 67.0305 34.7227 67.0305 34.104C67.0305 33.4427 66.7105 32.952 66.0705 32.632C65.4518 32.312 64.4598 31.96 63.0945 31.576C61.7718 31.2133 60.6945 30.8613 59.8625 30.52C59.0305 30.1787 58.3052 29.656 57.6865 28.952C57.0892 28.248 56.7905 27.32 56.7905 26.168C56.7905 25.2293 57.0678 24.376 57.6225 23.608C58.1772 22.8187 58.9665 22.2 59.9905 21.752C61.0358 21.304 62.2305 21.08 63.5745 21.08C65.5798 21.08 67.1905 21.592 68.4065 22.616C69.6438 23.6187 70.3052 24.9947 70.3905 26.744H66.7425C66.6785 25.9547 66.3585 25.3253 65.7825 24.856C65.2065 24.3867 64.4278 24.152 63.4465 24.152C62.4865 24.152 61.7505 24.3333 61.2385 24.696C60.7265 25.0587 60.4705 25.5387 60.4705 26.136C60.4705 26.6053 60.6412 27 60.9825 27.32C61.3238 27.64 61.7398 27.896 62.2305 28.088C62.7212 28.2587 63.4465 28.4827 64.4065 28.76C65.6865 29.1013 66.7318 29.4533 67.5425 29.816C68.3745 30.1573 69.0892 30.6693 69.6865 31.352C70.2838 32.0347 70.5932 32.9413 70.6145 34.072C70.6145 35.0747 70.3372 35.9707 69.7825 36.76C69.2278 37.5493 68.4385 38.168 67.4145 38.616C66.4118 39.064 65.2278 39.288 63.8625 39.288ZM90.5243 21.368V39H86.8763V36.92C86.3003 37.6453 85.5429 38.2213 84.6043 38.648C83.6869 39.0533 82.7056 39.256 81.6603 39.256C80.2736 39.256 79.0256 38.968 77.9163 38.392C76.8283 37.816 75.9643 36.9627 75.3243 35.832C74.7056 34.7013 74.3963 33.336 74.3963 31.736V21.368H78.0123V31.192C78.0123 32.7707 78.4069 33.9867 79.1963 34.84C79.9856 35.672 81.0629 36.088 82.4283 36.088C83.7936 36.088 84.8709 35.672 85.6603 34.84C86.4709 33.9867 86.8763 32.7707 86.8763 31.192V21.368H90.5243ZM101.738 39.288C100.351 39.288 99.1028 39.0427 97.9935 38.552C96.9055 38.04 96.0415 37.3573 95.4015 36.504C94.7615 35.6293 94.4202 34.6587 94.3775 33.592H98.1535C98.2175 34.3387 98.5695 34.968 99.2095 35.48C99.8708 35.9707 100.692 36.216 101.674 36.216C102.698 36.216 103.487 36.024 104.042 35.64C104.618 35.2347 104.906 34.7227 104.906 34.104C104.906 33.4427 104.586 32.952 103.946 32.632C103.327 32.312 102.335 31.96 100.97 31.576C99.6468 31.2133 98.5695 30.8613 97.7375 30.52C96.9055 30.1787 96.1802 29.656 95.5615 28.952C94.9642 28.248 94.6655 27.32 94.6655 26.168C94.6655 25.2293 94.9428 24.376 95.4975 23.608C96.0522 22.8187 96.8415 22.2 97.8655 21.752C98.9108 21.304 100.106 21.08 101.45 21.08C103.455 21.08 105.066 21.592 106.282 22.616C107.519 23.6187 108.18 24.9947 108.266 26.744H104.618C104.554 25.9547 104.234 25.3253 103.658 24.856C103.082 24.3867 102.303 24.152 101.322 24.152C100.362 24.152 99.6255 24.3333 99.1135 24.696C98.6015 25.0587 98.3455 25.5387 98.3455 26.136C98.3455 26.6053 98.5162 27 98.8575 27.32C99.1988 27.64 99.6148 27.896 100.106 28.088C100.596 28.2587 101.322 28.4827 102.282 28.76C103.562 29.1013 104.607 29.4533 105.418 29.816C106.25 30.1573 106.964 30.6693 107.562 31.352C108.159 32.0347 108.468 32.9413 108.49 34.072C108.49 35.0747 108.212 35.9707 107.658 36.76C107.103 37.5493 106.314 38.168 105.29 38.616C104.287 39.064 103.103 39.288 101.738 39.288Z"/><defs><linearGradient id="paint0_linear_1078_8692" x1="17.686" x2="4.075" y1="10.043" y2="38.473" gradientUnits="userSpaceOnUse"><stop offset=".245" stop-color="#31572C"/><stop offset=".988" stop-color="#4F772D"/></linearGradient></defs></svg>